Coordinates
version=1
nRows=7
nColumns=46
inDegrees=yes

Units are S.I. units (second, meters, Newtons, ...)
Angles are in degrees.

endheader
time	pelvis_tilt	pelvis_list	pelvis_rotation	pelvis_tx	pelvis_ty	pelvis_tz	bb_angle	bb_tx	bb_ty	bb_tz	hip_flexion_r	hip_adduction_r	hip_rotation_r	knee_angle_r	knee_angle_r_beta	ankle_angle_r	subtalar_angle_r	mtp_angle_r	crank_angle_r	hip_flexion_l	hip_adduction_l	hip_rotation_l	knee_angle_l	knee_angle_l_beta	ankle_angle_l	subtalar_angle_l	mtp_angle_l	crank_angle_l	lumbar_extension	lumbar_bending	lumbar_rotation	arm_flex_r	arm_add_r	arm_rot_r	elbow_flex_r	pro_sup_r	wrist_flex_r	wrist_dev_r	arm_flex_l	arm_add_l	arm_rot_l	elbow_flex_l	pro_sup_l	wrist_flex_l	wrist_dev_l
      2.50500000	    -24.52612975	     -8.29244276	    -18.24983842	      0.32007924	      1.12091805	     -0.32439800	      0.00000000	      0.50000000	      0.00000000	      0.25000000	     75.59953612	     10.52111415	     -1.74793159	     82.59759120	      1.44159992	     23.62291950	     -0.97080520	      0.00000000	      0.00000000	     39.67538775	    -21.56637280	     -5.94953541	     48.11464661	      0.83975900	    -31.03704083	     -8.54439771	      0.00000000	      0.00000000	    -65.59114713	      3.85258315	     10.31176337	     86.32976999	      6.26481061	     29.20279700	     42.97710234	     40.50764939	      0.00000000	      0.00000000	     59.86508615	    -24.88018782	     11.91413137	     67.52642178	     44.92684989	      0.00000000	      0.00000000
      2.51000000	    -24.40474696	     -7.88752024	    -18.03846008	      0.32120106	      1.12066594	     -0.32554936	      0.00000000	      0.50000000	      0.00000000	      0.25000000	     74.97158498	     10.13291952	     -1.41327911	     81.28962431	      1.41877159	     23.29593117	     -0.89514388	      0.00000000	      0.00000000	     40.27593731	    -20.78234066	     -5.28171608	     49.83245630	      0.86974044	    -30.75738644	     -9.22687918	      0.00000000	      0.00000000	    -65.73304873	      4.04782576	     10.01780524	     86.26801216	      6.31747109	     29.02586673	     43.40441042	     40.56596769	      0.00000000	      0.00000000	     59.65614861	    -24.85939453	     12.04287690	     67.75936565	     44.97956365	      0.00000000	      0.00000000
      2.51500000	    -24.30046244	     -7.46343566	    -17.87319884	      0.32273075	      1.12030506	     -0.32613688	      0.00000000	      0.50000000	      0.00000000	      0.25000000	     74.28334920	      9.86282933	     -1.02121934	     79.92279869	      1.39491598	     23.08831159	     -1.10926553	      0.00000000	      0.00000000	     40.79662183	    -20.08777601	     -4.83608376	     51.45034625	      0.89797794	    -30.48734678	     -9.80136607	      0.00000000	      0.00000000	    -65.82605654	      4.15602161	      9.72703656	     86.07192180	      6.36914987	     28.92136357	     43.71941904	     40.61500570	      0.00000000	      0.00000000	     59.38337427	    -24.84041486	     12.15222026	     67.86372428	     45.01026177	      0.00000000	      0.00000000
      2.52000000	    -24.34605815	     -7.24564236	    -17.50658801	      0.32399118	      1.11950393	     -0.32695148	      0.00000000	      0.50000000	      0.00000000	      0.25000000	     73.72629112	      9.48871551	     -0.92524238	     78.60346785	      1.37188932	     22.78793745	     -1.69565998	      0.00000000	      0.00000000	     41.66980365	    -19.47574700	     -4.04841047	     53.22771035	      0.92899880	    -30.37629366	    -10.44457474	      0.00000000	      0.00000000	    -65.85060042	      4.62548356	      9.49294838	     85.74322185	      6.48738819	     28.59650939	     44.56634444	     40.74090230	      0.00000000	      0.00000000	     58.98106980	    -25.07613556	     12.27553996	     68.15770719	     45.07459647	      0.00000000	      0.00000000
      2.52500000	    -24.20497667	     -6.80887923	    -17.29238506	      0.32556581	      1.11903467	     -0.32742858	      0.00000000	      0.50000000	      0.00000000	      0.25000000	     72.98109388	      9.18835807	     -0.47927844	     77.22944242	      1.34790805	     22.47932421	     -1.84965678	      0.00000000	      0.00000000	     42.10611487	    -18.78576336	     -3.73610529	     54.73804310	      0.95535908	    -30.06648708	    -10.83989925	      0.00000000	      0.00000000	    -65.90029423	      4.74851072	      9.21970599	     85.48431264	      6.45992635	     28.43998903	     44.90451410	     40.79118271	      0.00000000	      0.00000000	     58.79643744	    -25.11692427	     12.29757012	     68.25364063	     45.09380790	      0.00000000	      0.00000000
      2.53000000	    -24.23767020	     -6.57930665	    -16.86945035	      0.32697777	      1.11792274	     -0.32825544	      0.00000000	      0.50000000	      0.00000000	      0.25000000	     72.39027785	      8.74140025	     -0.37799031	     75.92874551	      1.32520661	     22.14107611	     -2.06667095	      0.00000000	      0.00000000	     42.93565744	    -18.15370505	     -3.00861123	     56.46047242	      0.98542114	    -29.85950990	    -11.14355957	      0.00000000	      0.00000000	    -65.86415054	      5.26434107	      8.98650240	     84.95177187	      6.51255428	     27.89142072	     46.22068481	     40.99139107	      0.00000000	      0.00000000	     58.32271750	    -25.34144626	     12.30690282	     68.60979007	     45.15516405	      0.00000000	      0.00000000
      2.53500000	    -24.01829734	     -6.17696598	    -16.65773874	      0.32875328	      1.11705403	     -0.32880474	      0.00000000	      0.50000000	      0.00000000	      0.25000000	     71.58380952	      8.40680844	      0.04316428	     74.69550567	      1.30368251	     21.82348932	     -2.11482553	      0.00000000	      0.00000000	     43.28935288	    -17.51853600	     -2.79437175	     58.07867558	      1.01366411	    -29.39325646	    -11.50132262	      0.00000000	      0.00000000	    -65.93137246	      5.36866767	      8.70781751	     84.58633696	      6.45303429	     27.71716535	     46.56967163	     41.04736789	      0.00000000	      0.00000000	     58.08269842	    -25.29477790	     12.33777599	     68.67336334	     45.16971085	      0.00000000	      0.00000000
